<svg width="159" height="99" viewBox="0 0 159 99" fill="none" xmlns="http://www.w3.org/2000/svg">
<path d="M70.4273 43.0424C70.2943 43.0424 70.1634 43.0555 70.0315 43.0654C69.9194 41.5083 68.622 40.2713 67.0267 40.2713C65.3588 40.2713 64.0009 41.6208 64.0009 43.2784C64.0009 43.4183 64.024 43.5505 64.0427 43.6849C63.7953 43.6204 63.5358 43.5822 63.2687 43.5822C61.5898 43.5822 60.2243 44.9404 60.2243 46.609C60.2243 46.8603 60.2561 47.1061 60.3166 47.3422C59.922 47.1277 59.4956 46.9768 59.0533 46.8953C58.8961 46.4516 58.674 46.0408 58.4178 45.654C58.9906 45.171 59.3623 44.4607 59.3623 43.6576C59.3623 42.2087 58.176 41.0297 56.7181 41.0297C55.4592 41.0297 54.407 41.9093 54.142 43.0817L53.865 43.0479C53.2647 41.8525 52.0223 41.0297 50.5897 41.0297C49.1296 41.0297 47.8773 41.8907 47.2913 43.1233C46.8031 42.7397 46.1951 42.5015 45.5266 42.5015C43.9456 42.5015 42.6603 43.7789 42.6603 45.3491C42.6603 45.4999 42.6823 45.6463 42.7054 45.7905C40.6109 46.4593 39.0903 48.4119 39.0903 50.7131C39.0903 53.564 41.4245 55.8827 44.293 55.8827C45.7014 55.8827 47.0054 55.3287 47.9619 54.3704C49.0163 54.6971 50.2268 54.5638 51.1789 54.0109C52.5412 54.6512 54.1574 54.719 55.568 54.2109C56.3263 54.8552 57.2915 55.2087 58.2892 55.2074C59.2061 55.2074 60.0736 54.9145 60.7839 54.3922C61.2379 54.531 61.7294 54.5835 62.2077 54.5343C63.0829 55.2085 64.1581 55.5822 65.2752 55.5822C66.5341 55.5822 67.7391 55.1003 68.6572 54.2721C69.2289 54.4567 69.8248 54.5518 70.4273 54.5518C73.6202 54.5518 76.2171 51.9708 76.2171 48.7976C76.2171 45.6234 73.6202 43.0424 70.4273 43.0424Z" fill="#66CEF5"/>
<path d="M70.4275 44.664C68.6233 44.664 67.1038 45.8124 66.5266 47.4077C66.1385 47.2547 65.7185 47.1641 65.2743 47.1641C65.0127 47.1641 64.7609 47.2001 64.5157 47.2547C64.618 47.0613 64.6817 46.8428 64.6817 46.609C64.6817 45.8331 64.0495 45.2049 63.2689 45.2049C62.4883 45.2049 61.8561 45.8331 61.8561 46.609C61.8561 47.3137 62.3805 47.8918 63.0622 47.9923C62.7214 48.2813 62.4415 48.6345 62.2387 49.0315C62.1144 49.0074 61.9869 48.9932 61.8561 48.9932C61.2986 48.9932 60.7973 49.2227 60.4378 49.5909C59.9738 48.9025 59.1855 48.448 58.2894 48.448C58.0992 48.448 57.9156 48.472 57.7375 48.5103C57.5868 46.3642 55.8057 44.664 53.6079 44.664C53.2594 44.664 52.9251 44.7197 52.6008 44.8005L52.6151 44.664C52.6151 43.5527 51.708 42.6512 50.5899 42.6512C49.4717 42.6512 48.5657 43.5527 48.5657 44.664C48.5657 45.6037 49.2166 46.3871 50.0929 46.6079C49.795 47.0788 49.597 47.6131 49.5113 48.1868C49.3969 48.1704 49.2826 48.1519 49.1639 48.1519C48.4514 48.1519 47.8181 48.4654 47.3772 48.9561C46.7615 47.8907 45.6181 47.1641 44.2932 47.1641C42.3208 47.1641 40.7222 48.7528 40.7222 50.7131C40.7222 52.6723 42.3208 54.2611 44.2932 54.2611C45.706 54.2611 46.9154 53.4383 47.4949 52.2549C47.9269 52.6712 48.5141 52.9302 49.1639 52.9302C49.9258 52.9302 50.5965 52.5718 51.0363 52.0222C51.7465 52.5816 52.6316 52.9302 53.6079 52.9302C54.4985 52.9302 55.3187 52.6472 55.9948 52.174C56.4214 53.0078 57.2834 53.5847 58.2894 53.5847C59.2152 53.5847 60.02 53.0974 60.4763 52.3707C60.8336 52.716 61.3195 52.9302 61.8561 52.9302C62.1496 52.9302 62.4267 52.8624 62.6774 52.7488C63.3041 53.4831 64.2287 53.9606 65.2743 53.9606C66.5288 53.9606 67.6129 53.282 68.2088 52.2811C68.852 52.6865 69.6095 52.9302 70.4275 52.9302C72.7243 52.9302 74.5857 51.0803 74.5857 48.7976C74.5857 46.515 72.7243 44.664 70.4275 44.664Z" fill="#95DDF5"/>
<path d="M56.718 44.664C57.2766 44.664 57.7295 44.2138 57.7295 43.6576C57.7295 43.1014 57.2766 42.6512 56.718 42.6512C56.1584 42.6512 55.7054 43.1014 55.7054 43.6576C55.7054 44.2138 56.1584 44.664 56.718 44.664ZM45.5266 46.5751C46.2071 46.5751 46.7591 46.0265 46.7591 45.3491C46.7591 44.6727 46.2071 44.1231 45.5266 44.1231C44.8449 44.1231 44.293 44.6727 44.293 45.3491C44.293 46.0265 44.8449 46.5751 45.5266 46.5751ZM67.0277 44.664C67.7973 44.664 68.4218 44.0444 68.4218 43.2784C68.4218 42.5135 67.7973 41.8929 67.0277 41.8929C66.257 41.8929 65.6336 42.5135 65.6336 43.2784C65.6336 44.0444 66.257 44.664 67.0277 44.664Z" fill="#95DDF5"/>
<path d="M75.1999 57.4868H5.40479L7.40691 91.0227C7.59382 94.1533 10.2028 96.5977 13.3583 96.5977H61.3764C64.1525 96.5977 66.5614 94.6931 67.1859 92.004L75.1999 57.4868Z" fill="#1E738A"/>
<path d="M7.07088 85.3713L7.02246 84.5642L7.07088 85.3713Z" fill="#CDCCCA"/>
<path d="M7.07046 85.3713L7.02209 84.5638L6.92533 82.9444L28.6266 62.5274L5.70824 62.558L5.40479 57.4868H53.4624V62.4946L34.854 62.5187L7.07046 85.3713ZM56.7641 62.4902V57.4868H75.1999L74.0444 62.4673L56.7641 62.4902Z" fill="#135769"/>
<path d="M74.2788 51.1349H6.32743C2.83223 51.1349 0 53.9508 0 57.4234V57.4868H80.6062V57.4234C80.6062 53.9508 77.7729 51.1349 74.2788 51.1349Z" fill="#1E738A"/>
<path d="M80.2325 57.0103C80.2325 57.0103 78.3139 51.8375 72.2734 51.4267C72.5373 51.4125 72.7935 51.4048 73.0409 51.4048C79.9961 51.4048 80.2325 57.0103 80.2325 57.0103Z" fill="#F14C63"/>
<path d="M53.463 56.4487H2.35107L2.35768 56.4071C2.7205 54.1671 4.74461 52.952 6.99962 52.952H50.5374C51.7765 52.952 52.8275 53.3192 53.463 54.0218V56.4487Z" fill="#135769"/>
<path d="M35.4996 46.6582H17.9081C16.7943 46.6582 15.7608 47.2363 15.1847 48.1826L13.3838 51.135H40.0238L38.2229 48.1826C37.9391 47.7173 37.5394 47.3325 37.0623 47.0655C36.5853 46.7985 36.0471 46.6582 35.4996 46.6582Z" fill="#1E738A"/>
<path d="M39.1792 49.7526L39.1226 49.6589L39.1792 49.7526Z" fill="#CDCCCA"/>
<path d="M40.0239 51.135L39.1807 49.7534L40.0239 51.135Z" fill="#47A9D0"/>
<path d="M40.0238 51.135H13.3838L14.2843 49.6595H39.1234L39.1806 49.7534L40.0238 51.135Z" fill="#135769"/>
<path d="M41.4176 55.4783L4.72297 84.6981C4.33815 85.0051 3.77523 84.9429 3.46738 84.5615L2.2074 83.0011C2.1339 82.9101 2.07917 82.8056 2.04635 82.6935C2.01352 82.5815 2.00325 82.4641 2.01612 82.3481C2.02899 82.2321 2.06472 82.1198 2.12132 82.0175C2.17791 81.9153 2.25425 81.8251 2.34593 81.7522L39.0395 52.5335C39.8498 51.8866 41.0339 52.0156 41.6837 52.8209L41.7079 52.8504C42.3577 53.6557 42.2279 54.8325 41.4176 55.4783Z" fill="#373737"/>
<path d="M40.9868 53.8716C41.1594 54.3642 40.8978 54.9026 40.4019 55.0752C39.9061 55.2467 39.3629 54.9867 39.1903 54.4942C39.0166 54.0016 39.2794 53.4621 39.7752 53.2906C40.2711 53.1192 40.8131 53.378 40.9868 53.8716Z" fill="#EF3143"/>
<path d="M65.9453 91.7855L69.7517 63.076H72.7785L65.9453 91.7855Z" fill="#158BAB"/>
<path d="M53.4624 79.65H56.7638V7.54663H53.4624V79.65Z" fill="#324994"/>
<path d="M53.4624 79.65H55.1125V7.54663H53.4624V79.65Z" fill="#283B73"/>
<path d="M53.1499 7.54614H57.0757V8.82149e-05H53.1499V7.54614Z" fill="#1E738A"/>
<path d="M55.1124 7.54614H53.1499V-1.85966e-05H55.1124V7.54614Z" fill="#135769"/>
<path d="M50.9258 84.2042H59.3002V79.6499H50.9258V84.2042Z" fill="#D6BC12"/>
<path d="M50.9258 84.2042H59.3002V81.927H50.9258V84.2042Z" fill="#A9971E"/>
<path d="M76.0944 88.1161H34.1333V84.2042H76.0944V88.1161Z" fill="#D6BC12"/>
<path d="M75.5587 88.893H34.52V88.1165H75.5587V88.893Z" fill="#100F0D"/>
<path d="M76.0944 97.1953H34.1333V88.893H76.0944V97.1953Z" fill="#3D61AE"/>
<path d="M76.0944 91.1122H34.1333V90.1103H76.0944V91.1122ZM76.0944 92.83H34.1333V91.828H76.0944V92.83ZM76.0944 94.5488H34.1333V93.5468H76.0944V94.5488ZM76.0944 96.2665H34.1333V95.2645H76.0944V96.2665Z" fill="#283B74"/>
<path d="M148.436 88.6213L147.685 84.6549C149.552 84.3937 151.22 83.4431 152.3 82.0182C153.38 80.5944 153.837 78.8373 153.587 77.0716L150.038 52.0095C145.317 24.9172 108.356 20.8633 86.7441 20.8633V16.8127C126.272 16.8127 150.179 29.0902 154.063 51.3823L157.622 76.5077C158.023 79.3455 157.289 82.1679 155.554 84.456C153.819 86.7441 151.291 88.2236 148.436 88.6213Z" fill="#1A1817"/>
<path d="M148.65 89.6703L147.503 83.7238L141.347 83.7817L142.909 91.8786L148.65 89.6703Z" fill="#373737"/>
<path d="M148.65 89.6702L148.447 88.6206L148.65 89.6702Z" fill="#CDCCCA"/>
<path d="M148.447 88.6201L148.092 86.7766L148.447 88.6201Z" fill="#181615"/>
<path d="M143.364 91.7037C143.37 91.5223 143.373 91.3311 143.373 91.129C143.373 90.1456 143.299 88.9337 143.062 87.5701L148.092 86.7757L148.448 88.6201L148.65 89.6702L143.364 91.7037Z" fill="#2C2B2B"/>
<path d="M82.6622 68.0261H75.234V84.7324H75.1194C73.483 84.7324 72.1567 86.0501 72.1567 87.6772V87.7067H82.6622V68.0261Z" fill="#373737"/>
<path d="M78.9486 87.7067H72.1567V87.6772C72.1567 86.0501 73.483 84.7324 75.1194 84.7324H75.234V68.0261H78.9486V87.7067Z" fill="#2C2B2B"/>
<path d="M76.6553 68.0262H81.2395V24.7432H76.6553V68.0262Z" fill="#878888"/>
<path d="M78.9479 68.0262H76.6553V24.7435H78.9479V68.0262Z" fill="#686A6C"/>
<path d="M82.6621 84.7324H75.2339V82.8975H82.6621V84.7324Z" fill="#1A1817"/>
<path d="M71.0316 87.1364H62.18C59.7758 87.1364 57.5609 88.8301 56.3936 91.5607L55.3496 94.004C55.0292 94.7524 55.5171 95.619 56.2588 95.619H71.0316V87.1364Z" fill="#373737"/>
<path d="M71.0316 95.619H56.2588C55.6764 95.619 55.2508 95.0846 55.2495 94.4924C55.2491 94.3307 55.2804 94.1646 55.3496 94.004L56.3936 91.5607H71.0316V95.619Z" fill="#2C2B2B"/>
<path d="M75.6077 95.619H71.0308V87.7068H83.4891V87.7854C83.4891 92.1114 79.9605 95.619 75.6077 95.619Z" fill="#1A1817"/>
<path d="M90.8423 62.7867C149.651 62.7867 143.16 93.8007 143.16 93.8007H90.8423V62.7867Z" fill="#E94E1B"/>
<path d="M143.168 93.7603H143.167C143.283 93.0467 144.666 83.0431 132.885 74.0174C120.981 64.8978 92.3998 62.8905 90.9043 62.7911V62.7867C139.027 62.8053 143.374 83.6102 143.372 91.1291C143.372 92.5955 143.207 93.5559 143.168 93.7603Z" fill="#C93B0C"/>
<path d="M142.655 93.7603H102.599C104.058 91.7278 104.922 89.2442 104.922 86.5572C104.922 79.6951 99.3255 74.1333 92.4217 74.1333C91.9067 74.1333 91.4025 74.1737 90.9043 74.2338V62.8785C108.875 89.7555 138.443 93.3756 142.655 93.7603Z" fill="#FF5E29"/>
<path d="M102.599 93.7602C104.058 91.7278 104.922 89.2441 104.922 86.5571C104.922 79.695 99.3251 74.1332 92.4212 74.1332C91.9062 74.1332 91.402 74.1736 90.9038 74.2337V62.7112L90.8424 62.7866C87.6776 64.0192 84.791 65.2539 84.791 71.4856V93.0007C84.791 95.6571 86.9577 97.8097 89.63 97.8097H97.7196L97.7209 97.8119L97.7252 97.8097H132.842C136.666 97.8097 140.35 96.3783 143.16 93.8006L143.204 93.7602H102.599Z" fill="#373737"/>
<path d="M103.362 86.9254C103.362 93.2871 98.1743 98.4424 91.7742 98.4424C85.3746 98.4424 80.1865 93.2871 80.1865 86.9254C80.1865 80.5648 85.3746 75.4095 91.7742 75.4095C98.1743 75.4095 103.362 80.5648 103.362 86.9254Z" fill="#878888"/>
<path d="M100.073 94.9655C100.074 94.9633 100.075 94.9622 100.077 94.9611C100.075 94.9623 100.074 94.9637 100.073 94.9655ZM100.096 94.9403C100.1 94.937 100.104 94.9338 100.107 94.9294C100.104 94.9338 100.1 94.937 100.096 94.9403ZM100.14 94.8955C101.132 93.8679 101.924 92.6664 102.476 91.3519C101.94 92.6336 101.161 93.8367 100.14 94.8955ZM103.362 87.0642V87.0631V87.0642ZM103.362 87.0314C103.362 87.0281 103.362 87.0248 103.363 87.0216C103.362 87.0248 103.362 87.0281 103.362 87.0314ZM103.363 86.9964V86.9779V86.9964ZM103.363 86.9615V86.9254V86.9615ZM103.363 86.9254V86.8904V86.9254ZM103.363 86.8729V86.8555V86.8729ZM103.363 86.8303C103.362 86.8271 103.362 86.8238 103.362 86.8205C103.362 86.8238 103.362 86.8271 103.363 86.8303ZM103.362 86.7888V86.7877V86.7888ZM102.477 82.5022C101.929 81.1973 101.145 80.0036 100.163 78.9804C101.174 80.0338 101.945 81.2303 102.477 82.5022ZM100.162 78.9804C100.156 78.9728 100.15 78.9662 100.143 78.9597C100.15 78.9662 100.156 78.9728 100.162 78.9804ZM100.132 78.9487C100.129 78.9448 100.126 78.9412 100.122 78.9378C100.125 78.9411 100.129 78.9455 100.132 78.9487ZM100.101 78.917C100.101 78.916 100.1 78.9149 100.099 78.9138L100.101 78.917Z" fill="#5C5D5F"/>
<path d="M83.7124 78.6527L83.7161 78.6496L83.7124 78.6527Z" fill="white"/>
<path d="M99.8363 78.6527L99.8325 78.6494L99.8363 78.6527ZM99.8131 78.6307C99.8088 78.6263 99.8045 78.6219 99.7998 78.6186C99.8045 78.623 99.8088 78.6263 99.8131 78.6307Z" fill="#5C5D5F"/>
<path d="M83.7358 78.6307C83.7403 78.6261 83.7448 78.6227 83.7493 78.6181C83.7448 78.6227 83.7403 78.6261 83.7358 78.6307Z" fill="white"/>
<path d="M99.7909 78.61C98.7489 77.6168 97.5295 76.8256 96.1953 76.2771C97.4953 76.8093 98.7176 77.5873 99.7909 78.61Z" fill="#5C5D5F"/>
<path d="M83.7578 78.61C84.089 78.2933 84.4338 78.0028 84.7915 77.733V77.7341C84.4302 78.006 84.085 78.2984 83.7578 78.61Z" fill="white"/>
<path d="M84.791 77.7336V77.7325C85.5787 77.1402 86.4397 76.6511 87.3529 76.277C86.4398 76.6518 85.5789 77.1413 84.791 77.7336ZM92.0222 75.4116H92.0093H92.0222ZM91.5252 75.4116H91.5382H91.5252ZM91.9917 75.4116C91.9826 75.4116 91.9733 75.4105 91.9643 75.4105C91.9736 75.4105 91.9823 75.4116 91.9917 75.4116ZM91.5558 75.4116C91.5653 75.4116 91.5738 75.4105 91.5833 75.4105C91.5743 75.4105 91.5648 75.4116 91.5558 75.4116ZM91.588 75.4105C91.6498 75.4094 91.7117 75.4094 91.7735 75.4094C91.8358 75.4094 91.8972 75.4094 91.9595 75.4105C91.8972 75.4094 91.8358 75.4094 91.7735 75.4094C91.7117 75.4094 91.6498 75.4094 91.588 75.4105Z" fill="#5C5D5F"/>
<path d="M99.9681 95.0693C99.9681 95.0693 106.1 86.2086 99.5211 79.3749C96.8003 76.9994 94.0061 76.2312 91.5337 76.2312C87.0237 76.2312 83.5806 78.7827 83.5806 78.7827C83.6239 78.739 83.6682 78.6952 83.7124 78.6526L83.7162 78.6493C83.7227 78.6428 83.7291 78.6373 83.7356 78.6308C83.7399 78.6264 83.7442 78.6231 83.7485 78.6188C83.7514 78.6155 83.7549 78.6122 83.7579 78.61C84.7994 77.6161 86.0189 76.8248 87.3535 76.2771C88.6884 75.7297 90.1048 75.4423 91.5259 75.4117H91.5564C91.5654 75.4117 91.5749 75.4106 91.5839 75.4106H91.5886C91.6504 75.4095 91.7123 75.4095 91.7741 75.4095C91.8365 75.4095 91.8978 75.4095 91.9601 75.4106H91.9649C91.9739 75.4106 91.9832 75.4117 91.9924 75.4117H92.0228C93.444 75.4423 94.8603 75.7297 96.1952 76.2771C97.5293 76.8256 98.7487 77.6168 99.7908 78.61C99.7942 78.6125 99.7972 78.6154 99.7998 78.6188C99.8045 78.622 99.8088 78.6264 99.8131 78.6308C99.8196 78.6373 99.826 78.6428 99.8324 78.6493L99.8363 78.6526C99.8806 78.6952 99.9248 78.739 99.9681 78.7827C100.012 78.8264 100.056 78.8701 100.099 78.9138C100.1 78.9149 100.1 78.916 100.101 78.9171C100.108 78.9236 100.115 78.9302 100.121 78.9378C100.125 78.9412 100.129 78.9449 100.132 78.9488C100.136 78.952 100.14 78.9553 100.143 78.9597C100.149 78.9662 100.156 78.9728 100.162 78.9804H100.163C101.145 80.0036 101.929 81.1973 102.477 82.5022C103.044 83.8615 103.345 85.3162 103.362 86.7878V86.8205C103.362 86.8238 103.362 86.8271 103.362 86.8304V87.0216C103.362 87.0249 103.362 87.0281 103.362 87.0314V87.0642C103.345 88.5366 103.044 89.9921 102.476 91.3519C101.924 92.6664 101.132 93.8679 100.14 94.8956C100.139 94.8966 100.138 94.8977 100.137 94.8988C100.131 94.9046 100.124 94.9108 100.119 94.9174C100.115 94.9218 100.111 94.9251 100.107 94.9294C100.103 94.9338 100.1 94.9371 100.096 94.9403C100.089 94.948 100.083 94.9545 100.076 94.9611C100.075 94.9623 100.074 94.9638 100.073 94.9655C100.038 95.0004 100.003 95.0354 99.9681 95.0693Z" fill="#9F9F9E"/>
<path d="M99.8655 86.9254C99.8655 91.3672 96.2429 94.9666 91.7741 94.9666C87.3058 94.9666 83.6831 91.3672 83.6831 86.9254C83.6831 82.4847 87.3058 78.8854 91.7741 78.8854C96.2429 78.8854 99.8655 82.4847 99.8655 86.9254Z" fill="#373737"/>
<path d="M91.7739 94.1569C89.9121 94.1569 88.0499 93.451 86.6291 92.0393C83.7877 89.2146 83.7877 84.6374 86.6291 81.8127L96.9186 92.0393C95.4983 93.451 93.6361 94.1569 91.7739 94.1569Z" fill="#2C2B2B"/>
<path d="M81.494 24.7435H76.4004V21.9527C76.4004 18.8866 78.9111 16.3909 81.9965 16.3909H86.7439V21.4534H81.9965C81.8632 21.4535 81.7355 21.5062 81.6414 21.5998C81.5472 21.6934 81.4942 21.8203 81.494 21.9527V24.7435Z" fill="#373737"/>
<path d="M81.4941 24.7435H78.9478V21.9527C78.9478 20.1421 79.3154 18.9172 81.9966 18.9172H86.7441V21.4534H81.9966C81.8634 21.4535 81.7357 21.5062 81.6415 21.5998C81.5473 21.6934 81.4943 21.8203 81.4941 21.9527V24.7435Z" fill="#2C2B2B"/>
<path d="M88.6022 21.2741H87.647V16.5602H88.6022V21.2741ZM91.6584 21.2741H90.7032V16.5602H91.6584V21.2741ZM94.7144 21.2741H93.7593V16.5602H94.7144V21.2741ZM97.6478 21.5692L96.6939 21.52L96.9383 16.8126L97.8922 16.8618L97.6478 21.5692ZM100.715 21.7997L99.7613 21.7549L99.9833 17.0465L100.937 17.0902L100.715 21.7997ZM103.669 22.0456L102.717 21.9604L103.143 17.265L104.094 17.3502L103.669 22.0456ZM106.63 22.3493L105.682 22.227L106.294 17.5513L107.241 17.6737L106.63 22.3493ZM109.717 22.8312L108.768 22.722L109.319 18.0397L110.268 18.149L109.717 22.8312ZM112.632 23.3459L111.692 23.1809L112.516 18.538L113.456 18.703L112.632 23.3459ZM115.686 23.9742L114.751 23.7753L115.745 19.1652L116.679 19.3641L115.686 23.9742ZM118.73 24.7522L117.799 24.5413L118.855 19.9454L119.786 20.1563L118.73 24.7522ZM121.396 25.5356L120.491 25.2341L122.004 20.7649L122.909 21.0676L121.396 25.5356ZM124.33 26.5038L123.427 26.1956L124.97 21.7374L125.874 22.0467L124.33 26.5038ZM126.952 27.5538L126.071 27.1867L127.909 22.8399L128.79 23.2082L126.952 27.5538ZM129.67 28.6881L128.79 28.3198L130.628 23.9742L131.508 24.3413L129.67 28.6881ZM131.957 29.854L131.117 29.4027L133.371 25.2548L134.211 25.7061L131.957 29.854ZM134.504 31.3411L133.663 30.8899L135.918 26.742L136.758 27.1922L134.504 31.3411ZM137.029 32.7649L136.227 32.2503L138.804 28.2914L139.606 28.8072L137.029 32.7649ZM139.248 34.5591L138.488 33.9844L141.36 30.232L142.12 30.8068L139.248 34.5591ZM141.668 36.5205L140.908 35.9458L143.779 32.1934L144.54 32.7682L141.668 36.5205ZM143.474 38.5365L142.791 37.8722L146.112 34.5056L146.794 35.1699L143.474 38.5365ZM144.956 40.5984L144.38 39.8412L148.167 37.0002L148.743 37.7574L144.956 40.5984ZM146.129 42.6888L145.713 41.8343L149.986 39.7833L150.402 40.6378L146.129 42.6888ZM147.341 44.7572L147.005 43.8689L151.448 42.2134L151.784 43.1029L147.341 44.7572ZM148.348 47.1743L148.012 46.2859L152.455 44.6305L152.79 45.5199L148.348 47.1743ZM149.189 49.5749L148.916 48.6647L153.462 47.3185L153.735 48.2276L149.189 49.5749ZM149.768 52.0597L149.608 51.1244L154.285 50.3398L154.444 51.2752L149.768 52.0597ZM150.086 54.7172L149.927 53.7818L154.603 52.9973L154.763 53.9326L150.086 54.7172ZM150.532 57.2806L150.373 56.3442L155.049 55.5596L155.208 56.4961L150.532 57.2806ZM150.901 60.0178L150.741 59.0814L155.418 58.2979L155.577 59.2344L150.901 60.0178ZM151.251 62.5802L151.092 61.6449L155.768 60.8603L155.927 61.7967L151.251 62.5802ZM151.633 65.3338L151.474 64.3974L156.15 63.6128L156.309 64.5493L151.633 65.3338ZM152.111 68.118L151.951 67.1815L156.628 66.397L156.787 67.3334L152.111 68.118ZM152.397 70.8705L152.238 69.9341L156.914 69.1506L157.074 70.0859L152.397 70.8705ZM152.843 73.5596L152.683 72.6232L157.36 71.8386L157.519 72.7751L152.843 73.5596ZM153.054 76.028L152.895 75.0916L157.571 74.307L157.73 75.2434L153.054 76.028ZM153.307 78.3992L153.277 77.4507L158.017 77.3065L158.047 78.2549L153.307 78.3992ZM153.011 80.1781L153.232 79.2547L157.846 80.3452L157.625 81.2697L153.011 80.1781ZM152.219 81.6849L152.754 80.8981L156.684 83.5381L156.149 84.3249L152.219 81.6849ZM150.862 82.8563L151.656 82.3285L154.292 86.248L153.498 86.7758L150.862 82.8563ZM149.094 83.9216L149.989 83.5906L151.645 88.0083L150.75 88.3394L149.094 83.9216Z" fill="#464648"/>
<path d="M80.6108 67.2459H79.7832V25.2547H80.6108V67.2459Z" fill="white"/>
<path d="M84.7919 73.5104H82.6621V71.6559H84.7919V73.5104Z" fill="#1A1817"/>
</svg>
